<?xml version="1.0" encoding="UTF-8"?><svg id="a" xmlns="http://www.w3.org/2000/svg" viewBox="0 0 1920 1080"><defs><style>.b{letter-spacing:0em;}.b,.c,.d{fill:#f29400;}.c{letter-spacing:-.08em;}.e{fill:#d75710;}.f{fill:#005e91;}.g{fill:#01a6de;}.h{font-family:BodoniMT-Bold, Bodoni MT;font-size:250.9px;}</style></defs><polygon class="g" points="327.38 447.43 327.38 306.37 478.04 457.04 407.52 527.57 327.38 447.43"/><polygon class="f" points="173.54 459.48 256.48 376.53 327.02 306.01 327.38 306.37 327.38 447.43 324.57 444.63 241.63 527.57 173.54 459.48"/><polygon class="f" points="327.38 849.62 327.38 660.75 421.81 755.18 327.38 849.62"/><polygon class="g" points="232.31 755.27 327.11 660.48 327.38 660.75 327.38 849.62 327.01 849.98 232.31 755.27"/><polygon class="e" points="55.03 577.99 149.82 483.19 244.17 577.54 327.11 494.59 327.38 494.86 327.38 613.31 324.57 610.51 300.86 634.23 206.06 729.02 149.37 672.33 123.11 646.08 55.03 577.99"/><polygon class="d" points="327.38 613.31 327.38 494.86 410.05 577.54 433.77 553.82 504.29 483.29 599 577.99 528.47 648.52 504.75 672.24 445.52 731.46 327.38 613.31"/><text class="h" transform="translate(663.14 670.17)"><tspan class="f" x="0" y="0">Cloud</tspan><tspan class="c" x="585.97" y="0">W</tspan><tspan class="b" x="808.33" y="0">r</tspan><tspan class="d" x="904.87" y="0">ok</tspan></text></svg>